# xmcd CD database file
#
# Track frame offsets:
#	187
#	17752
#	36262
#	53160
#	66162
#	85087
#	99160
#	119025
#	138800
#	159277
#	172842
#
# Disc length: 2560 seconds
#
# Revision: 2
# Processed by: cddbd v1.4PL0 Copyright (c) Steve Scherf et al.
# Submitted via: CDex 1.50Beta7
#
DISCID=8209fe0b
DTITLE=Terry Garland - Trouble In Mind
DYEAR=1991
DGENRE=Blues
TTITLE0=Kokomo
TTITLE1=Wang Dang Doodle
TTITLE2=Upside Your Head
TTITLE3=Hospital Bill Blues
TTITLE4=Forty-Four
TTITLE5=Trouble in Mind
TTITLE6=Ain't Long Afore Day
TTITLE7=Aberdeen
TTITLE8=Trouble on the Way
TTITLE9=Bad Luck and Trouble
TTITLE10=Hard Time Killing Floor
EXTD=YEAR: 1991
EXTT0=
EXTT1=
EXTT2=
EXTT3=
EXTT4=
EXTT5=
EXTT6=
EXTT7=
EXTT8=
EXTT9=
EXTT10=
PLAYORDER=
